<?xml version="1.0" encoding="UTF-8" standalone="no"?>
<!-- Uploaded to: SVG Repo, www.svgrepo.com, Generator: SVG Repo Mixer Tools -->

<svg
   width="512"
   height="512"
   viewBox="0 0 512 512"
   fill="none"
   version="1.1"
   id="svg1"
   sodipodi:docname="AL-ActionImage-Viewer-Icon.svg"
   xml:space="preserve"
   inkscape:version="1.4.3 (0d15f75, 2025-12-25)"
   xmlns:inkscape="http://www.inkscape.org/namespaces/inkscape"
   xmlns:sodipodi="http://sodipodi.sourceforge.net/DTD/sodipodi-0.dtd"
   xmlns="http://www.w3.org/2000/svg"
   xmlns:svg="http://www.w3.org/2000/svg"><defs
     id="defs1"><inkscape:path-effect
       effect="powerclip"
       message=""
       id="path-effect38"
       is_visible="true"
       lpeversion="1"
       inverse="true"
       flatten="false"
       hide_clip="false" /><inkscape:path-effect
       effect="fillet_chamfer"
       id="path-effect33"
       is_visible="true"
       lpeversion="1"
       nodesatellites_param="F,0,0,1,0,0.46390578,0,1 @ F,0,0,1,0,0,0,1 @ F,0,0,1,0,0,0,1 @ F,0,0,1,0,0,0,1 @ F,0,0,1,0,0,0,1 @ F,0,1,1,0,0.3493872,0,1"
       radius="0"
       unit="px"
       method="auto"
       mode="F"
       chamfer_steps="1"
       flexible="false"
       use_knot_distance="true"
       apply_no_radius="true"
       apply_with_radius="true"
       only_selected="false"
       hide_knots="false" /><inkscape:path-effect
       effect="powerclip"
       message=""
       id="path-effect29"
       is_visible="true"
       lpeversion="1"
       inverse="true"
       flatten="false"
       hide_clip="false" /><inkscape:path-effect
       effect="powerclip"
       message=""
       id="path-effect25"
       is_visible="true"
       lpeversion="1"
       inverse="true"
       flatten="false"
       hide_clip="false" /><inkscape:path-effect
       effect="powerclip"
       message=""
       id="path-effect20"
       is_visible="true"
       lpeversion="1"
       inverse="true"
       flatten="false"
       hide_clip="false" /><inkscape:path-effect
       effect="fillet_chamfer"
       id="path-effect14"
       is_visible="true"
       lpeversion="1"
       nodesatellites_param="F,0,0,1,0,0.46390578,0,1 @ F,0,0,1,0,0,0,1 @ F,0,0,1,0,0,0,1 @ F,0,0,1,0,0,0,1 @ F,0,0,1,0,0,0,1 @ F,0,1,1,0,0.3493872,0,1"
       radius="0"
       unit="px"
       method="auto"
       mode="F"
       chamfer_steps="1"
       flexible="false"
       use_knot_distance="true"
       apply_no_radius="true"
       apply_with_radius="true"
       only_selected="false"
       hide_knots="false" /><inkscape:path-effect
       effect="fillet_chamfer"
       id="path-effect11"
       is_visible="true"
       lpeversion="1"
       nodesatellites_param="F,0,0,1,0,0.46390578,0,1 @ F,0,0,1,0,0,0,1 @ F,0,0,1,0,0,0,1 @ F,0,0,1,0,0,0,1 @ F,0,0,1,0,0,0,1 @ F,0,1,1,0,0.3493872,0,1"
       radius="0"
       unit="px"
       method="auto"
       mode="F"
       chamfer_steps="1"
       flexible="false"
       use_knot_distance="true"
       apply_no_radius="true"
       apply_with_radius="true"
       only_selected="false"
       hide_knots="false" /><inkscape:path-effect
       effect="fillet_chamfer"
       id="path-effect7"
       is_visible="true"
       lpeversion="1"
       nodesatellites_param="F,0,0,1,0,0.46390578,0,1 @ F,0,0,1,0,0,0,1 @ F,0,0,1,0,0,0,1 @ F,0,0,1,0,0,0,1 @ F,0,0,1,0,0,0,1 @ F,0,1,1,0,0.3493872,0,1"
       radius="0"
       unit="px"
       method="auto"
       mode="F"
       chamfer_steps="1"
       flexible="false"
       use_knot_distance="true"
       apply_no_radius="true"
       apply_with_radius="true"
       only_selected="false"
       hide_knots="false" /><linearGradient
       id="a"
       x1="74.981003"
       x2="437.01999"
       y1="74.981003"
       y2="437.01999"
       gradientUnits="userSpaceOnUse"
       gradientTransform="translate(-2e-5,1.0517578e-5)"><stop
         stop-color="#9efae2"
         offset="0"
         id="stop1" /><stop
         stop-color="#44e1b5"
         offset="1"
         id="stop2" /></linearGradient><clipPath
       clipPathUnits="userSpaceOnUse"
       id="clipPath20"><ellipse
         style="display:block;fill:#ffffff;fill-opacity:1;stroke:none;stroke-width:34.55;stroke-dasharray:none;stroke-opacity:1;paint-order:markers stroke fill"
         id="ellipse20"
         cx="257.0694"
         cy="392.41943"
         rx="67.866325"
         ry="61.696659" /></clipPath><clipPath
       clipPathUnits="userSpaceOnUse"
       id="clipPath24"><path
         style="display:block;fill:#ffffff;fill-opacity:1;stroke:none;stroke-width:34.55;stroke-dasharray:none;stroke-opacity:1;paint-order:markers stroke fill"
         d="m 132.09021,376.63888 -37.881018,46.93426 18.976368,37.40958 59.62237,5.08972 23.99437,-37.80931 z"
         id="path25" /></clipPath><clipPath
       clipPathUnits="userSpaceOnUse"
       id="clipPath38"><path
         style="baseline-shift:baseline;display:none;overflow:visible;opacity:1;vector-effect:none;fill:#000000;stroke:none;stroke-width:0.76696;stroke-linecap:round;stroke-linejoin:round;enable-background:accumulate;stop-color:#000000;stop-opacity:1"
         d="m 19.088346,6.8899934 c -4.178477,0 -7.605179,3.4267026 -7.605179,7.6051786 0,4.178456 3.42669,7.60518 7.605179,7.60518 1.411355,0 2.663544,-0.49554 3.800342,-1.174407 l 2.943506,2.934517 c 0.724651,0.723225 1.898443,0.721886 2.621442,-0.003 0.723225,-0.724652 0.721885,-1.898443 -0.003,-2.621443 l -2.939015,-2.930028 c 0.682969,-1.139272 1.181896,-2.394864 1.181896,-3.810828 0,-4.178489 -3.426724,-7.6051791 -7.60518,-7.6051791 z"
         id="path38"
         inkscape:label="magnifying-glass-black"
         sodipodi:nodetypes="ssscccccss" /><path
         id="lpe_path-effect38"
         style="baseline-shift:baseline;display:inline;overflow:visible;opacity:1;vector-effect:none;fill:#000000;stroke:none;stroke-width:0.76696;stroke-linecap:round;stroke-linejoin:round;enable-background:accumulate;stop-color:#000000;stop-opacity:1"
         class="powerclip"
         d="M -4.0015553,-3.0015553 H 28.001555 V 27.001555 H -4.0015553 Z M 19.088346,6.8899934 c -4.178477,0 -7.605179,3.4267026 -7.605179,7.6051786 0,4.178456 3.42669,7.60518 7.605179,7.60518 1.411355,0 2.663544,-0.49554 3.800342,-1.174407 l 2.943506,2.934517 c 0.724651,0.723225 1.898443,0.721886 2.621442,-0.003 0.723225,-0.724652 0.721885,-1.898443 -0.003,-2.621443 l -2.939015,-2.930028 c 0.682969,-1.139272 1.181896,-2.394864 1.181896,-3.810828 0,-4.178489 -3.426724,-7.6051791 -7.60518,-7.6051791 z" /></clipPath></defs><sodipodi:namedview
     id="namedview1"
     pagecolor="#ffffff"
     bordercolor="#000000"
     borderopacity="0.25"
     inkscape:showpageshadow="2"
     inkscape:pageopacity="0.0"
     inkscape:pagecheckerboard="0"
     inkscape:deskcolor="#d1d1d1"
     inkscape:zoom="1.45875"
     inkscape:cx="-22.964868"
     inkscape:cy="319.10883"
     inkscape:window-width="2560"
     inkscape:window-height="1369"
     inkscape:window-x="-8"
     inkscape:window-y="-8"
     inkscape:window-maximized="1"
     inkscape:current-layer="svg1" /><circle
     cx="256"
     cy="256"
     r="256"
     fill="url(#a)"
     style="display:inline;fill:url(#a);stroke:none;stroke-width:1;paint-order:stroke fill markers"
     id="circle2"
     inkscape:label="background" /><g
     id="g1"
     inkscape:label="group"
     transform="translate(0.81709143,11.193963)"><g
       id="g7"
       transform="matrix(12.577013,0,0,12.577013,72.39778,84.616604)"
       style="display:inline;mix-blend-mode:normal;fill:none;stroke:#017364;stroke-opacity:1"
       inkscape:label="logo-group"
       clip-path="url(#clipPath38)"
       inkscape:path-effect="#path-effect38"><path
         d="m 6.8,21 h 10.4 c 1.6802,0 2.5202,0 3.162,-0.327 0.5645,-0.2876 1.0234,-0.7465 1.311,-1.311 C 22,18.7202 22,17.8802 22,16.2 V 7.8 C 22,6.11984 22,5.27976 21.673,4.63803 21.3854,4.07354 20.9265,3.6146 20.362,3.32698 19.7202,3 18.8802,3 17.2,3 H 6.8 C 5.11984,3 4.27976,3 3.63803,3.32698 3.07354,3.6146 2.6146,4.07354 2.32698,4.63803 2,5.27976 2,6.11984 2,7.8 v 8.4 c 0,1.6802 0,2.5202 0.32698,3.162 0.28762,0.5645 0.74656,1.0234 1.31105,1.311 C 4.27976,21 5.11984,21 6.8,21 Z"
         id="path6"
         style="display:inline;stroke:#017364;stroke-width:2.00001;stroke-dasharray:none;stroke-opacity:1"
         inkscape:original-d="m 6.8,21 h 10.4 c 1.6802,0 2.5202,0 3.162,-0.327 0.5645,-0.2876 1.0234,-0.7465 1.311,-1.311 C 22,18.7202 22,17.8802 22,16.2 V 7.8 C 22,6.11984 22,5.27976 21.673,4.63803 21.3854,4.07354 20.9265,3.6146 20.362,3.32698 19.7202,3 18.8802,3 17.2,3 H 6.8 C 5.11984,3 4.27976,3 3.63803,3.32698 3.07354,3.6146 2.6146,4.07354 2.32698,4.63803 2,5.27976 2,6.11984 2,7.8 v 8.4 c 0,1.6802 0,2.5202 0.32698,3.162 0.28762,0.5645 0.74656,1.0234 1.31105,1.311 C 4.27976,21 5.11984,21 6.8,21 Z" /><path
         d="M 10,9 C 10,10.1046 9.10457,11 8,11 6.89543,11 6,10.1046 6,9 6,7.89543 6.89543,7 8,7 c 1.10457,0 2,0.89543 2,2 z"
         id="path5"
         style="fill:#017364;fill-opacity:1;stroke:#017364;stroke-width:2.00001;stroke-dasharray:none;stroke-opacity:1"
         inkscape:original-d="M 10,9 C 10,10.1046 9.10457,11 8,11 6.89543,11 6,10.1046 6,9 6,7.89543 6.89543,7 8,7 c 1.10457,0 2,0.89543 2,2 z" /><path
         d="M 4.6001212,20.399869 10.8686,14.1314 c 0.396,-0.396 0.5941,-0.5941 0.8224,-0.6682 0.2008,-0.0653 0.4172,-0.0653 0.618,0 0.2283,0.0741 0.4264,0.2722 0.8224,0.6682 l 6.305446,6.305446 a 0.14530557,0.14530557 0 0 1 -0.102332,0.248051 L 4.7359939,20.726576 A 0.19138049,0.19138049 0 0 1 4.6001212,20.399869 Z"
         id="path4"
         style="fill:#017364;fill-opacity:1;stroke:#017364;stroke-width:2.00001;stroke-dasharray:none;stroke-opacity:1"
         sodipodi:nodetypes="ccccscc"
         inkscape:original-d="m 4.27209,20.7279 6.59651,-6.5965 c 0.396,-0.396 0.5941,-0.5941 0.8224,-0.6682 0.2008,-0.0653 0.4172,-0.0653 0.618,0 0.2283,0.0741 0.4264,0.2722 0.8224,0.6682 l 6.5525,6.5525 z"
         inkscape:path-effect="#path-effect7" /></g><g
       style="fill:none;stroke:#007264;stroke-opacity:1"
       id="g14"
       transform="matrix(9.6460556,0,0,9.6460556,211.18857,165.63899)"
       inkscape:label="magnifying-glass-group"><path
         d="M 15.7955,15.8111 21,21 M 18,10.5 C 18,14.6421 14.6421,18 10.5,18 6.35786,18 3,14.6421 3,10.5 3,6.35786 6.35786,3 10.5,3 14.6421,3 18,6.35786 18,10.5 Z"
         stroke="#000000"
         stroke-width="2"
         stroke-linecap="round"
         stroke-linejoin="round"
         id="path34"
         style="display:inline;fill:none;stroke:#017364;stroke-width:2.4165;stroke-dasharray:none;stroke-opacity:1"
         inkscape:label="magnifying-glass" /></g></g></svg>
