<svg width="512" height="512" fill="none" version="1.1" viewBox="0 0 512 512" xml:space="preserve" xmlns="http://www.w3.org/2000/svg">
    <defs>
        <linearGradient id="a" x1="74.981" x2="437.02" y1="74.981" y2="437.02" gradientTransform="translate(-2e-5 1.0518e-5)" gradientUnits="userSpaceOnUse">
            <stop stop-color="#9efae2" offset="0"/>
            <stop stop-color="#44e1b5" offset="1"/>
        </linearGradient>
        <clipPath id="b">
            <path d="m19.088 6.89c-4.1785 0-7.6052 3.4267-7.6052 7.6052 0 4.1785 3.4267 7.6052 7.6052 7.6052 1.4114 0 2.6635-0.49554 3.8003-1.1744l2.9435 2.9345c0.72465 0.72322 1.8984 0.72189 2.6214-3e-3 0.72322-0.72465 0.72188-1.8984-3e-3 -2.6214l-2.939-2.93c0.68297-1.1393 1.1819-2.3949 1.1819-3.8108 0-4.1785-3.4267-7.6052-7.6052-7.6052z" display="none" fill="#000" stop-color="#000000"/>
            <path class="powerclip" d="m-4.0016-3.0016h32.003v30.003h-32.003zm23.09 9.8915c-4.1785 0-7.6052 3.4267-7.6052 7.6052 0 4.1785 3.4267 7.6052 7.6052 7.6052 1.4114 0 2.6635-0.49554 3.8003-1.1744l2.9435 2.9345c0.72465 0.72322 1.8984 0.72189 2.6214-3e-3 0.72322-0.72465 0.72188-1.8984-3e-3 -2.6214l-2.939-2.93c0.68297-1.1393 1.1819-2.3949 1.1819-3.8108 0-4.1785-3.4267-7.6052-7.6052-7.6052z" fill="#000" stop-color="#000000"/>
        </clipPath>
    </defs>
    <circle cx="256" cy="256" r="256" fill="url(#a)" style="paint-order:stroke fill markers"/>
    <g transform="translate(.81709 11.194)" fill="none">
        <g transform="matrix(12.577 0 0 12.577 72.398 84.617)" clip-path="url(#b)" stroke="#017364" stroke-width="2" style="mix-blend-mode:normal">
            <path d="m 6.8,21 h 10.4 c 1.6802,0 2.5202,0 3.162,-0.327 0.5645,-0.2876 1.0234,-0.7465 1.311,-1.311 C 22,18.7202 22,17.8802 22,16.2 V 7.8 C 22,6.11984 22,5.27976 21.673,4.63803 21.3854,4.07354 20.9265,3.6146 20.362,3.32698 19.7202,3 18.8802,3 17.2,3 H 6.8 C 5.11984,3 4.27976,3 3.63803,3.32698 3.07354,3.6146 2.6146,4.07354 2.32698,4.63803 2,5.27976 2,6.11984 2,7.8 v 8.4 c 0,1.6802 0,2.5202 0.32698,3.162 0.28762,0.5645 0.74656,1.0234 1.31105,1.311 C 4.27976,21 5.11984,21 6.8,21 Z"/>
            <path d="m10 9c0 1.1046-0.89543 2-2 2s-2-0.8954-2-2c0-1.1046 0.89543-2 2-2s2 0.89543 2 2z" fill="#017364"/>
            <path d="m4.6001 20.4 6.2685-6.2685c0.396-0.396 0.5941-0.5941 0.8224-0.6682 0.2008-0.0653 0.4172-0.0653 0.618 0 0.2283 0.0741 0.4264 0.2722 0.8224 0.6682l6.3054 6.3054a0.14531 0.14531 0 0 1-0.10233 0.24805l-14.599 0.041679a0.19138 0.19138 0 0 1-0.13587-0.32671z" fill="#017364"/>
        </g>
        <g transform="matrix(9.6461 0 0 9.6461 211.19 165.64)" stroke="#007264">
            <path d="m15.796 15.811 5.2045 5.1889m-3-10.5c0 4.1421-3.3579 7.5-7.5 7.5-4.1421 0-7.5-3.3579-7.5-7.5 0-4.1421 3.3579-7.5 7.5-7.5 4.1421 0 7.5 3.3579 7.5 7.5z" fill="none" stroke="#017364" stroke-linecap="round" stroke-linejoin="round" stroke-width="2.4165"/>
        </g>
    </g>
</svg>